<svg width="2902" height="1913" xmlns="http://www.w3.org/2000/svg" xmlns:xlink="http://www.w3.org/1999/xlink" xml:space="preserve" overflow="hidden"><defs><clipPath id="clip0"><rect x="71" y="365" width="2902" height="1913"/></clipPath></defs><g clip-path="url(#clip0)" transform="translate(-71 -365)"><path d="M887 2043 887.731 2195.42" fill="#4472C4" fill-rule="evenodd"/><path d="M892.156 2042.98 892.764 2169.62 882.451 2169.67 881.844 2043.02ZM903.051 2164.41 887.731 2195.42 872.114 2164.56Z" fill="#008000"/><path d="M811.5 1287.5 1058.09 1287.5 1110 1346 1161.91 1287.5 1408.5 1287.5 1289.1 1469.5 930.9 1469.5Z" stroke="#000000" stroke-width="6.875" stroke-miterlimit="8" fill="none" fill-rule="evenodd"/><text font-family="Tahoma,Tahoma_MSFontService,sans-serif" font-weight="400" font-size="50" transform="matrix(1 0 0 1 971.054 1398)">16<tspan font-size="50" x="54.9999" y="0">-</tspan><tspan font-size="50" x="73.3333" y="0">bit Adder</tspan></text><rect x="585.5" y="1651.5" width="660" height="264" stroke="#000000" stroke-width="6.875" stroke-linejoin="round" stroke-miterlimit="10" fill="none"/><text font-family="Tahoma,Tahoma_MSFontService,sans-serif" font-weight="400" font-size="64" transform="matrix(1 0 0 1 792.221 1820)">RegLoad</text><rect x="974" y="627" width="660" height="264" stroke="#000000" stroke-width="8.02083" stroke-linejoin="round" stroke-miterlimit="10" fill="none"/><text font-family="Tahoma,Tahoma_MSFontService,sans-serif" font-weight="400" font-size="64" transform="matrix(1 0 0 1 1131.86 796)">RegShiftLeft</text><path d="M1109.16 1469 1109.16 1625.67 1098.84 1625.67 1098.84 1469ZM1119.47 1620.51 1104 1651.45 1088.53 1620.51Z" fill="#843C0C"/><path d="M1309.16 891 1309.16 1261.27 1298.84 1261.27 1298.84 891ZM1319.47 1256.11 1304 1287.05 1288.53 1256.11Z" fill="#843C0C"/><path d="M1605.5 1864.5C1605.5 1778.34 1743.84 1708.5 1914.5 1708.5 2085.16 1708.5 2223.5 1778.34 2223.5 1864.5 2223.5 1950.66 2085.16 2020.5 1914.5 2020.5 1743.84 2020.5 1605.5 1950.66 1605.5 1864.5Z" stroke="#000000" stroke-width="6.875" stroke-miterlimit="8" fill="none" fill-rule="evenodd"/><text font-family="Tahoma,Tahoma_MSFontService,sans-serif" font-weight="400" font-size="73" transform="matrix(1 0 0 1 1797.96 1885)">Control</text><rect x="2252.5" y="1118.5" width="645" height="279" stroke="#000000" stroke-width="6.875" stroke-linejoin="round" stroke-miterlimit="10" fill="none"/><text font-family="Tahoma,Tahoma_MSFontService,sans-serif" font-weight="400" font-size="64" transform="matrix(1 0 0 1 2383.15 1295)">RegShiftRight</text><path d="M2045 1638.14 2970 1638.14 2967.14 1641 2967.14 1345 2970 1347.86 2930.59 1347.86 2930.59 1342.14 2972.86 1342.14 2972.86 1643.86 2045 1643.86ZM2935.17 1358.75 2907.67 1345 2935.17 1331.25Z"/><path d="M2042.06 1708.5 2042.06 851.5 2045.5 854.937 1664.42 854.937 1664.42 848.062 2048.94 848.062 2048.94 1708.5ZM1669 865.25 1641.5 851.5 1669 837.75Z"/><path d="M0.0173249-2.86453 337.63-0.822619 337.596 4.90644-0.0173249 2.86453ZM333.113-11.7356 360.529 2.18051 332.947 15.7639Z" transform="matrix(-1 0 0 1 1605.53 1864)"/><path d="M892.533 1919.52 892.533 2048.16 319.844 2048.16 319.844 1149.58 961.156 1147.83 961.156 1258.67 950.844 1258.67 950.844 1153 956.014 1158.16 325.014 1159.88 330.156 1154.72 330.156 2043 325 2037.84 887.377 2037.84 882.221 2043 882.221 1919.52ZM971.469 1253.51 956 1284.45 940.531 1253.51Z" fill="#843C0C"/><text fill="#843C0C" font-family="Tahoma,Tahoma_MSFontService,sans-serif" font-weight="400" font-size="50" transform="matrix(1 0 0 1 1351.1 1040)">16<tspan fill="#C55A11" font-size="50" x="1216.24" y="519">8</tspan></text><path d="M1041.86 479 1041.86 597.914 1036.14 597.914 1036.14 479ZM1052.75 593.331 1039 620.831 1025.25 593.331Z"/><text fill="#4472C4" font-family="Tahoma,Tahoma_MSFontService,sans-serif" font-weight="400" font-size="64" transform="matrix(1 0 0 1 994.421 449)">load   x_init</text><path d="M1226.16 479 1226.16 595.049 1215.84 595.049 1215.84 479ZM1236.47 589.893 1221 620.831 1205.53 589.893Z" fill="#C55A11"/><path d="M1917.94 2020.5 1917.94 2186.82 1911.06 2186.82 1911.06 2020.5ZM1928.25 2182.24 1914.5 2209.74 1900.75 2182.24Z" fill="#008000"/><text fill="#008000" font-family="Tahoma,Tahoma_MSFontService,sans-serif" font-weight="400" font-size="55" transform="matrix(1 0 0 1 1758.36 2149)">done<tspan fill="#000000" font-size="46" x="-758.039" y="-1466">load     </tspan><tspan fill="#000000" font-size="46" x="-602.206" y="-1466">load_data</tspan><tspan fill="#000000" font-size="46" x="-497.12" y="-1276">dout</tspan><tspan fill="#000000" font-size="46" x="-191.182" y="-1276">en</tspan></text><path d="M2326.86 973 2326.86 1087.94 2321.14 1087.94 2321.14 973ZM2337.75 1083.35 2324 1110.85 2310.25 1083.35Z"/><text fill="#4472C4" font-family="Tahoma,Tahoma_MSFontService,sans-serif" font-weight="400" font-size="64" transform="matrix(1 0 0 1 2277.26 916)">load   <tspan font-size="64" x="179.323" y="0">y_init</tspan></text><path d="M5.15602-0.0487692 6.21608 112.024-4.09596 112.121-5.15602 0.0487692ZM16.4793 106.77 1.3039 137.853-14.4568 107.063Z" fill="#C55A11" transform="matrix(-1 0 0 1 2507.3 973)"/><text font-family="Tahoma,Tahoma_MSFontService,sans-serif" font-weight="400" font-size="46" transform="matrix(1 0 0 1 2285.09 1173)">load     <tspan font-size="46" x="155.833" y="0">load_data</tspan><tspan font-size="46" x="202.796" y="191">dout</tspan><tspan font-size="46" x="537.379" y="191">en</tspan><tspan font-size="46" x="-1335.06" y="164">a</tspan><tspan font-size="46" x="-990.008" y="159">b</tspan></text><path d="M643.865 1557 643.865 1620.96 638.136 1620.96 638.136 1557ZM654.75 1616.38 641 1643.88 627.25 1616.38Z"/><text fill="#4472C4" font-family="Tahoma,Tahoma_MSFontService,sans-serif" font-weight="400" font-size="64" transform="matrix(1 0 0 1 600.389 1539)">load<tspan fill="#000000" font-size="64" x="199.375" y="0">0</tspan></text><path d="M828.156 1557 828.156 1618.1 817.844 1618.1 817.844 1557ZM838.469 1612.94 823 1643.88 807.531 1612.94Z" fill="#843C0C"/><text font-family="Tahoma,Tahoma_MSFontService,sans-serif" font-weight="400" font-size="46" transform="matrix(1 0 0 1 601.594 1705)">load     load_data<tspan font-size="46" x="468.646" y="0">din</tspan><tspan font-size="46" x="250.428" y="182">dout</tspan><tspan font-size="46" x="570.689" y="182">en</tspan><tspan font-size="46" x="1020.32" y="175">p_en</tspan><tspan font-size="46" x="1380.76" y="67">s_en</tspan><tspan font-size="46" x="1516.06" y="170">test</tspan></text><path d="M3.4375-6.58013e-06 3.43782 165.616-3.43718 165.616-3.4375 6.58013e-06ZM13.7503 161.032 0.000360892 188.532-13.7497 161.032Z" transform="matrix(1 0 0 -1 2045.5 2196.03)"/><text fill="#4472C4" font-family="Tahoma,Tahoma_MSFontService,sans-serif" font-weight="400" font-size="64" transform="matrix(1 0 0 1 2066.95 2172)">load</text><path d="M110.5 824.062 951.366 824.063 951.366 830.938 110.5 830.937ZM946.783 813.75 974.283 827.5 946.783 841.25Z" fill="#BDD7EE"/><text font-family="Tahoma,Tahoma_MSFontService,sans-serif" font-weight="400" font-size="64" transform="matrix(1 0 0 1 1331.67 1823)">p_en</text><path d="M169.5 2273.5 2742.23 2273.5" stroke="#BDD7EE" stroke-width="6.875" stroke-linejoin="round" stroke-miterlimit="10" fill="none" fill-rule="evenodd"/><text fill="#4472C4" font-family="Tahoma,Tahoma_MSFontService,sans-serif" font-weight="400" font-size="64" transform="matrix(1 0 0 1 110 798)">clock, reset</text><path d="M3.4375-3.4306e-06 3.43784 338.702-3.43716 338.702-3.4375 3.4306e-06ZM13.7503 334.118 0.000360892 361.618-13.7497 334.119Z" fill="#BDD7EE" transform="matrix(1 0 0 -1 646.5 2277.12)"/><path d="M3.4375-4.01818e-06 3.43783 285.822-3.43717 285.822-3.4375 4.01818e-06ZM13.7503 281.239 0.000360892 308.739-13.7497 281.239Z" fill="#BDD7EE" transform="matrix(1 0 0 -1 1673.5 2274.24)"/><path d="M3.4375-1.41009e-06 3.43785 856.867-3.43715 856.867-3.4375 1.41009e-06ZM13.7503 852.282 0.000360892 879.782-13.7497 852.282Z" fill="#BDD7EE" transform="matrix(1 0 0 -1 2741.5 2277.28)"/><path d="M169.5 827.5 169.5 2274.12" stroke="#BDD7EE" stroke-width="6.875" stroke-miterlimit="8" fill="none" fill-rule="evenodd"/><text font-family="Tahoma,Tahoma_MSFontService,sans-serif" font-weight="400" font-size="64" transform="matrix(1 0 0 1 1131.69 1568)">adder_out<tspan font-size="46" x="-40.1423" y="-116">s</tspan><tspan font-size="64" x="671.501" y="-193">shift_en</tspan><tspan fill="#008000" font-size="64" x="-310.346" y="547">p</tspan><tspan font-size="64" x="1328.44" y="-68">y</tspan><tspan font-size="64" x="112.094" y="-400">x</tspan><tspan font-size="46" x="870.528" y="411">load</tspan></text><path d="M2522 1401 2522 1803.38" stroke="#C55A11" stroke-width="10.3125" stroke-miterlimit="8" fill="none" fill-rule="evenodd"/><path d="M2404.01 1868.8 2246.4 1868.05 2246.43 1861.17 2404.05 1861.92ZM2250.93 1878.38 2223.5 1864.5 2251.07 1850.88Z"/><rect x="2404.5" y="1806.5" width="239" height="117" stroke="#000000" stroke-width="6.875" stroke-miterlimit="8" fill="none"/><text font-family="Tahoma,Tahoma_MSFontService,sans-serif" font-weight="400" font-size="55" transform="matrix(1 0 0 1 2432.6 1887)">testgen<tspan font-size="64" x="-160.635" y="-47">test</tspan></text><path d="M0 0 74.5795 58.0225" stroke="#843C0C" stroke-width="6.875" stroke-miterlimit="8" fill="#4472C4" fill-rule="evenodd" transform="matrix(1 0 0 -1 1259.5 1075.52)"/><text fill="#843C0C" font-family="Tahoma,Tahoma_MSFontService,sans-serif" font-weight="400" font-size="50" transform="matrix(1 0 0 1 936.903 1979)">16</text><path d="M0 0 74.5795 58.0225" stroke="#843C0C" stroke-width="6.875" stroke-miterlimit="8" fill="#4472C4" fill-rule="evenodd" transform="matrix(1 0 0 -1 844.5 2014.52)"/><path d="M0 0 74.5795 58.0225" stroke="#C55A11" stroke-width="6.875" stroke-miterlimit="8" fill="#4472C4" fill-rule="evenodd" transform="matrix(1 0 0 -1 2487.5 1567.52)"/><text fill="#C55A11" font-family="Tahoma,Tahoma_MSFontService,sans-serif" font-weight="400" font-size="50" transform="matrix(1 0 0 1 1268.33 562)">8</text><path d="M0 0 74.5795 58.0225" stroke="#C55A11" stroke-width="6.875" stroke-miterlimit="8" fill="#4472C4" fill-rule="evenodd" transform="matrix(1 0 0 -1 1188.5 571.523)"/><text fill="#C55A11" font-family="Tahoma,Tahoma_MSFontService,sans-serif" font-weight="400" font-size="50" transform="matrix(1 0 0 1 2549.96 1061)">8</text><path d="M0 0 74.5795 58.0225" stroke="#C55A11" stroke-width="6.875" stroke-miterlimit="8" fill="#4472C4" fill-rule="evenodd" transform="matrix(1 0 0 -1 2470.5 1069.52)"/></g></svg>